<svg xmlns="http://www.w3.org/2000/svg" xmlns:xlink="http://www.w3.org/1999/xlink" width="24" height="24" viewBox="0 0 24 24">
    <defs>
        <path id="a" d="M.978.819a.18.18 0 0 0-.178.183v11.537c0 .1.08.183.178.183h4.907c.54 0 .979.45.979 1.002v4.274c0 .101.08.183.178.183.014.012.084-.016.117-.043l5.883-5.174a.963.963 0 0 1 .636-.242h5.344a.18.18 0 0 0 .178-.183V1.002a.18.18 0 0 0-.178-.183H.978zM7.045 19h-.006a.992.992 0 0 1-.975-1.003v-4.273c0-.1-.08-.183-.18-.183H.979A.992.992 0 0 1 0 12.539V1.002C0 .45.44 0 .978 0h18.044C19.56 0 20 .45 20 1.002v11.537a.992.992 0 0 1-.978 1.002h-5.344a.178.178 0 0 0-.116.045L7.68 18.758a.959.959 0 0 1-.634.242z"/>
    </defs>
    <g fill="none" fill-rule="evenodd" transform="translate(2 4)">
        <mask id="b" fill="#fff">
            <use xlink:href="#a"/>
        </mask>
        <use fill="#FFF" xlink:href="#a"/>
        <g fill="#000" fill-opacity=".78" mask="url(#b)">
            <path d="M-2-4h24v24H-2z"/>
        </g>
    </g>
</svg>
