<svg xmlns="http://www.w3.org/2000/svg" width="64" height="64" viewBox="0 0 64 64">
    <g fill="none" fill-rule="evenodd">
        <path fill="#F8F9FF" d="M57.667 33.043h-9.334A2.34 2.34 0 0 0 46 35.376a2.34 2.34 0 0 0 2.333 2.334h9.334A2.34 2.34 0 0 1 60 40.043a2.34 2.34 0 0 1-2.333 2.333H11a2.34 2.34 0 0 1-2.333-2.333A2.34 2.34 0 0 1 11 37.71h9.333a2.341 2.341 0 0 0 2.334-2.334 2.34 2.34 0 0 0-2.334-2.333H7.5a2.34 2.34 0 0 1-2.333-2.333A2.34 2.34 0 0 1 7.5 28.376h9.917c.962 0 1.75-.787 1.75-1.75 0-.962-.788-1.75-1.75-1.75H6.333A2.34 2.34 0 0 1 4 22.543a2.34 2.34 0 0 1 2.333-2.333h49a2.34 2.34 0 0 1 2.334 2.333 2.34 2.34 0 0 1-2.334 2.333H44.25c-.963 0-1.75.788-1.75 1.75 0 .963.787 1.75 1.75 1.75h13.417A2.34 2.34 0 0 1 60 30.71a2.34 2.34 0 0 1-2.333 2.333"/>
        <path fill="#FFF" d="M45.389 21.335h-31.67s.027 18.863 0 19.907v.028a3.826 3.826 0 0 0 1.158 2.646 3.827 3.827 0 0 0 2.683 1.09h16.727a.508.508 0 0 0 .359-.148l11.1-11.101a.504.504 0 0 0 .15-.36V21.844a.508.508 0 0 0-.507-.508"/>
        <path stroke="#DAE1FD" stroke-width=".75" d="M45.389 21.335h-31.67s.027 18.863 0 19.907v.028a3.826 3.826 0 0 0 1.158 2.646 3.827 3.827 0 0 0 2.683 1.09h16.727a.508.508 0 0 0 .359-.148l11.1-11.101a.504.504 0 0 0 .15-.36V21.844a.508.508 0 0 0-.507-.508z"/>
        <path fill="#DAE1FD" d="M36.832 35.016h-14.05a.507.507 0 0 1 0-1.015h14.05a.509.509 0 0 1 0 1.015"/>
        <path fill="#EDF0FE" d="M45.397 21.335h-1.494v12.78l1.81-1.81a.449.449 0 0 0 .131-.316V21.783a.448.448 0 0 0-.447-.448"/>
        <path stroke="#DAE1FD" stroke-width=".75" d="M45.389 21.335h-31.67s.027 18.863 0 19.907v.028a3.826 3.826 0 0 0 1.158 2.646 3.827 3.827 0 0 0 2.683 1.09h16.727a.508.508 0 0 0 .359-.148l11.1-11.101a.504.504 0 0 0 .15-.36V21.844a.508.508 0 0 0-.507-.508z"/>
        <path fill="#FFF" d="M38.563 44.69l5.543-5.546v5.545h-5.544zm9.404-14.147a.506.506 0 0 0-.551.111L30.143 47.926a.51.51 0 0 0 .357.867h17.275c.28 0 .507-.228.507-.508V31.012a.51.51 0 0 0-.314-.469z"/>
        <path stroke="#DAE1FD" stroke-linecap="round" stroke-linejoin="round" stroke-width=".75" d="M38.563 44.69l5.543-5.546v5.545h-5.544zm9.404-14.147a.506.506 0 0 0-.551.111L30.143 47.926a.51.51 0 0 0 .357.867h17.275c.28 0 .507-.228.507-.508V31.012a.51.51 0 0 0-.314-.469z"/>
        <path fill="#EDF0FE" d="M47.968 30.544a.51.51 0 0 0-.553.11l-1.332 1.332v16.807h1.692a.508.508 0 0 0 .506-.508V31.013a.51.51 0 0 0-.313-.47"/>
        <path fill="#DAE1FD" d="M48.281 36.714h-1.95a.508.508 0 1 0 0 1.015h1.95v-1.015zM48.281 39.257h-1.95a.509.509 0 0 0 0 1.015h1.95v-1.015zM48.281 41.8h-1.95a.508.508 0 1 0 0 1.016h1.95V41.8zM48.281 44.344h-1.95a.509.509 0 0 0 0 1.015h1.95v-1.015z"/>
        <path stroke="#DAE1FD" stroke-linecap="round" stroke-linejoin="round" stroke-width=".75" d="M47.968 30.544a.51.51 0 0 0-.553.11L30.143 47.927a.507.507 0 0 0 .358.866h17.274c.28 0 .506-.228.506-.508V31.013a.51.51 0 0 0-.313-.47z"/>
        <path fill="#EDF0FE" d="M45.824 16.283a2 2 0 0 0 .073-.504v-.002-.006c0-.118-.013-.236-.035-.352-.006-.034-.017-.066-.024-.098l-.005-.017c-.01-.044-.026-.087-.039-.13-.008-.028-.014-.053-.023-.079l-.008-.025v-.005c-.005-.01-.007-.024-.012-.036-.01-.024-.027-.047-.038-.072l-.007-.016a2.042 2.042 0 0 0-.107-.2c0-.004-.004-.007-.004-.01-.023-.035-.047-.068-.072-.103a.17.17 0 0 1-.009-.014c-.022-.03-.04-.064-.064-.095a2.395 2.395 0 0 0-.137-.15v-.002a2.694 2.694 0 0 0-.097-.09l-.019-.015a1.604 1.604 0 0 0-.1-.08l.001.003v-.002c.002.004.002.01.005.014l-.01-.007a2.114 2.114 0 0 0-.266-.167l-.054-.027a2.075 2.075 0 0 0-.265-.108l-.086-.024a2.117 2.117 0 0 0-.249-.052c-.043-.006-.086-.008-.129-.012a1.954 1.954 0 0 0-.216-.006c-.06.002-.119.01-.179.016-.057.008-.114.014-.17.027-.079.015-.154.041-.229.067-.039.014-.079.024-.117.04a1.958 1.958 0 0 0-.286.15c-.014.008-.03.015-.044.025a1.898 1.898 0 0 0-.308.25l-.443.442-.177.177L29.08 27.784l.001.001-.022.08-.937 3.694v.003l3.776-.958 12.796-12.796.62-.62.004-.005c.071-.07.136-.146.195-.225l.054-.079a2.002 2.002 0 0 0 .258-.596"/>
        <path fill="#FFF" d="M45.68 18.8L32.887 31.595l-1.971-1.012-.848-1.806 12.796-12.795 1.944.74z"/>
        <path fill="#E3E9FD" d="M46.3 15.361a1.995 1.995 0 0 0-.215-.187c.284.422.24 1-.133 1.373L31.895 30.604l-2.72 1.883-.04-.042-.026.107 3.777-.958L45.68 18.8l.62-.62c.39-.389.584-.899.584-1.409s-.194-1.019-.584-1.409"/>
        <path fill="#FFF" d="M32.886 31.595l-3.777.958.958-3.776z"/>
        <path fill="#E3E9FD" d="M29.175 32.487l-.04-.042-.026.107 3.777-.958-.991-.99z"/>
        <path fill="#FFF" d="M46.3 15.361c.39.39.585.898.585 1.41 0 .51-.194 1.02-.584 1.408l-.62.62-2.818-2.818.62-.62a1.993 1.993 0 0 1 2.818 0"/>
        <path fill="#E3E9FD" d="M46.438 15.513a1.793 1.793 0 0 0-.235-.242l-.019-.016a1.592 1.592 0 0 0-.1-.08c.285.422.241.999-.132 1.372l-1.261 1.262.99.99.31-.31.31-.31c.072-.072.139-.15.198-.23a1.979 1.979 0 0 0 .385-1.178c0-.446-.148-.893-.447-1.258"/>
        <path stroke="#DAE1FD" stroke-linecap="round" stroke-linejoin="round" stroke-width=".75" d="M32.885 31.593zM42.862 15.978l2.818 2.818-12.796 12.796-2.818-2.818zM30.066 28.774l-.02.082-.938 3.694 3.694-.937.082-.02z"/>
        <path stroke="#DAE1FD" stroke-linecap="round" stroke-linejoin="round" stroke-width=".75" d="M46.3 18.178l.002-.002c.072-.073.139-.15.197-.23.02-.026.038-.053.057-.08l.003-.005a2.16 2.16 0 0 0 .162-.308c.014-.032.024-.065.037-.1a1.895 1.895 0 0 0 .094-.343c.019-.113.033-.225.033-.34v-.002l-.001-.006c0-.118-.012-.235-.033-.352-.007-.04-.021-.076-.03-.115a2.416 2.416 0 0 0-.07-.234c-.016-.043-.037-.085-.057-.128a1.941 1.941 0 0 0-.106-.202c-.026-.043-.056-.084-.086-.125-.022-.032-.04-.066-.064-.096a1.75 1.75 0 0 0-.137-.15v-.001H46.3a1.175 1.175 0 0 0-.115-.106 1.963 1.963 0 0 0-.1-.081c.004.006.004.012.008.017a1.987 1.987 0 0 0-2.61.17l-.444.443-.176.177 2.818 2.818.62-.62zM43.482 15.358l1.344 1.344"/>
        <path fill="#EDF0FE" d="M17.574 37.22c.22 0 .433.02.642.055V16.317a.507.507 0 0 0-.507-.508c-2.2 0-3.99 1.79-3.99 3.99v20.779a3.891 3.891 0 0 1 3.855-3.357"/>
        <path stroke="#DAE1FD" stroke-linecap="round" stroke-linejoin="round" stroke-width=".75" d="M17.574 37.22c.22 0 .433.02.642.055V16.317a.507.507 0 0 0-.507-.508c-2.2 0-3.99 1.79-3.99 3.99v20.779a3.891 3.891 0 0 1 3.855-3.357z"/>
        <path fill="#E3E9FD" d="M55 40.793a.5.5 0 1 1-1 0 .5.5 0 0 1 1 0M7.78 52.603a.5.5 0 1 1-1.001-.001.5.5 0 0 1 1.001.001"/>
        <path stroke="#E3E9FD" stroke-width=".75" d="M52 14.293a1.5 1.5 0 1 1-3.001-.001 1.5 1.5 0 0 1 3.001 0z"/>
        <path stroke="#E3E9FD" stroke-linecap="round" stroke-width=".75" d="M9 46.08h3M10.5 47.58v-3"/>
        <path fill="#E3E9FD" d="M10.125 23.293a1 1 0 1 1-2 0 1 1 0 1 1 2 0"/>
        <path stroke="#E3E9FD" stroke-linejoin="round" stroke-width=".5" d="M51.44 49.603v.5-1zM51.44 52.603v.5-1zM49.94 51.103h.5-1zM52.94 51.103h.5-1zM52.5 50.043l-.354.354.354-.354.354-.354zM50.379 52.164l-.354.354.354-.354.354-.354-.354.354zM50.379 50.043l.354.354-.354-.354-.354-.354zM52.5 52.164l.354.354-.354-.354-.354-.354.354.354zM11.207 10.75v.5-1zM11.207 13.75v.5-1zM9.707 12.25h.5-1zM12.707 12.25h.5-1zM12.268 11.19l-.354.353.354-.354.354-.354zM10.146 13.31l-.354.354.354-.354.354-.354zM10.146 11.19l.354.353-.354-.354-.354-.354zM12.268 13.31l.354.354-.354-.354-.354-.354z"/>
    </g>
</svg>
