<svg xmlns="http://www.w3.org/2000/svg" xmlns:xlink="http://www.w3.org/1999/xlink" width="24" height="24" viewBox="0 0 24 24">
    <defs>
        <path id="a" d="M3.61 19.2h2.677v-8.587h2.758L9.375 8H6.287V5.249c0-.96.234-2.062 2.054-2.062h1.382V.895A25.32 25.32 0 0 0 7.531.8c-2.455 0-3.92 1.537-3.92 4.112V8H.786v2.613H3.61V19.2zm3.463.8H2.825v-8.587H0V7.2h2.825V4.912C2.825 1.882 4.628 0 7.53 0c1.218 0 2.302.094 2.636.138l.342.047v3.802H8.341c-1.085 0-1.268.389-1.268 1.262V7.2h3.195l-.532 4.213H7.073V20z"/>
    </defs>
    <g fill="none" fill-rule="evenodd" transform="translate(7 2)">
        <mask id="b" fill="#fff">
            <use xlink:href="#a"/>
        </mask>
        <use fill="#FFF" xlink:href="#a"/>
        <g fill="#000" fill-opacity=".78" mask="url(#b)">
            <path d="M-7-2h24v24H-7z"/>
        </g>
    </g>
</svg>
