<svg xmlns="http://www.w3.org/2000/svg" width="64" height="64" viewBox="0 0 64 64">
    <g fill="none" fill-rule="evenodd">
        <path fill="#F8F9FF" d="M57.667 34.25h-9.334A2.34 2.34 0 0 0 46 36.583a2.34 2.34 0 0 0 2.333 2.334h9.334A2.34 2.34 0 0 1 60 41.25a2.34 2.34 0 0 1-2.333 2.333H11a2.34 2.34 0 0 1-2.333-2.333A2.34 2.34 0 0 1 11 38.917h9.333a2.341 2.341 0 0 0 2.334-2.334 2.34 2.34 0 0 0-2.334-2.333H7.5a2.34 2.34 0 0 1-2.333-2.333A2.34 2.34 0 0 1 7.5 29.583h9.917c.962 0 1.75-.787 1.75-1.75 0-.962-.788-1.75-1.75-1.75H6.333A2.34 2.34 0 0 1 4 23.75a2.34 2.34 0 0 1 2.333-2.333h49a2.34 2.34 0 0 1 2.334 2.333 2.34 2.34 0 0 1-2.334 2.333H44.25c-.963 0-1.75.788-1.75 1.75 0 .963.787 1.75 1.75 1.75h13.417A2.34 2.34 0 0 1 60 31.917a2.34 2.34 0 0 1-2.333 2.333"/>
        <path fill="#E3E9FD" d="M9.5 13.928a.5.5 0 1 1-1 0 .5.5 0 0 1 1 0"/>
        <path stroke="#E3E9FD" stroke-width=".75" d="M26.073 53.957a1.5 1.5 0 1 1-3-.001 1.5 1.5 0 0 1 3 .001z"/>
        <path stroke="#E3E9FD" stroke-linecap="round" stroke-width=".75" d="M53.5 45.75h3M55 47.25v-3M50.5 19.624h3M52 21.124v-3"/>
        <path fill="#E3E9FD" d="M43.964 53a1 1 0 1 1-2 0 1 1 0 0 1 2 0"/>
        <path stroke="#E3E9FD" stroke-linejoin="round" stroke-width=".5" d="M24.573 8.75v.5-1zM24.573 11.75v.5-1zM23.073 10.25h.5-1zM26.073 10.25h.5-1zM25.634 9.19l-.354.353.354-.354.354-.354zM23.513 11.31l-.354.355.354-.354.354-.354zM23.513 9.19l.354.353-.354-.354-.354-.354zM25.634 11.31l.354.355-.354-.354-.354-.354zM8.5 46.124v.5-1zM8.5 49.124v.5-1zM7 47.624h.5-1zM10 47.624h.5-1zM9.56 46.563l-.353.354.354-.354.354-.354zM7.44 48.685c-.196.194-.355.354-.355.354l.354-.354.354-.354-.354.354zM7.44 46.563l.353.354-.354-.354-.353-.354zM9.56 48.685c.196.194.355.354.355.354l-.354-.354-.354-.354.354.354z"/>
        <path fill="#E3E9FD" d="M46.176 25.962a4.24 4.24 0 0 1-3.323 4.136c.024.005.046.015.069.02a4.24 4.24 0 1 0 0-8.311c-.023.005-.045.014-.07.02a4.238 4.238 0 0 1 3.324 4.135"/>
        <path fill="#E3E9FD" d="M43.772 30.203s-.335.018-.85.114l-.069.015c1.73.34 5.31 1.562 5.31 5.866v6.66c0 .866-.707 1.574-1.574 1.574H48.425c.867 0 1.576-.708 1.576-1.574v-6.66c0-5.674-6.23-5.995-6.23-5.995"/>
        <path fill="#FFF" d="M39.53 25.962a4.24 4.24 0 0 0 3.322 4.136 4.24 4.24 0 0 0 3.324-4.136 4.238 4.238 0 0 0-3.324-4.135 4.239 4.239 0 0 0-3.322 4.135M48.163 42.858v-6.66c0-4.304-3.579-5.527-5.31-5.866-1.73.34-5.31 1.562-5.31 5.866v6.66c0 .866.708 1.574 1.574 1.574H46.59c.866 0 1.574-.708 1.574-1.574"/>
        <path stroke="#DAE1FD" stroke-linecap="round" stroke-linejoin="round" stroke-width=".75" d="M48.013 25.962a4.241 4.241 0 0 0-5.091-4.155c-.023.005-.045.014-.07.02a4.238 4.238 0 0 0-3.321 4.135 4.239 4.239 0 0 0 3.322 4.136c.024.005.046.015.069.02a4.24 4.24 0 0 0 5.091-4.156z"/>
        <path stroke="#DAE1FD" stroke-linecap="round" stroke-linejoin="round" stroke-width=".75" d="M43.772 30.203s-.335.018-.85.114l-.069.015c-1.73.341-5.31 1.562-5.31 5.866v6.66c0 .866.708 1.574 1.575 1.574h9.307c.867 0 1.576-.708 1.576-1.574v-6.66c0-5.674-6.23-5.995-6.23-5.995z"/>
        <path fill="#E3E9FD" d="M20.633 25.962a4.24 4.24 0 0 1-3.323 4.136c.024.005.046.015.069.02a4.24 4.24 0 1 0 0-8.311c-.023.005-.045.014-.07.02a4.238 4.238 0 0 1 3.324 4.135"/>
        <path fill="#E3E9FD" d="M18.229 30.203s-.335.018-.85.114l-.069.015c1.73.34 5.31 1.562 5.31 5.866v6.66c0 .866-.707 1.574-1.575 1.574h1.838c.867 0 1.575-.708 1.575-1.574v-6.66c0-5.674-6.23-5.995-6.23-5.995"/>
        <path fill="#FFF" d="M13.987 25.962a4.24 4.24 0 0 0 3.322 4.136 4.24 4.24 0 0 0 3.324-4.136 4.238 4.238 0 0 0-3.324-4.135 4.239 4.239 0 0 0-3.322 4.135M22.62 42.858v-6.66c0-4.304-3.579-5.527-5.31-5.866-1.73.34-5.31 1.562-5.31 5.866v6.66c0 .866.708 1.574 1.574 1.574H21.046c.866 0 1.574-.708 1.574-1.574"/>
        <path stroke="#DAE1FD" stroke-linecap="round" stroke-linejoin="round" stroke-width=".75" d="M22.47 25.962a4.241 4.241 0 0 0-5.091-4.155c-.023.005-.045.014-.07.02a4.238 4.238 0 0 0-3.321 4.135 4.239 4.239 0 0 0 3.322 4.136c.024.005.046.015.069.02a4.24 4.24 0 0 0 5.091-4.156z"/>
        <path stroke="#DAE1FD" stroke-linecap="round" stroke-linejoin="round" stroke-width=".75" d="M18.229 30.203s-.335.018-.85.114l-.069.015c-1.73.341-5.31 1.562-5.31 5.866v6.66c0 .866.708 1.574 1.575 1.574h9.308c.867 0 1.575-.708 1.575-1.574v-6.66c0-5.674-6.23-5.995-6.23-5.995z"/>
        <path fill="#E3E9FD" d="M34.4 22.438c0 2.865-2.013 5.254-4.7 5.848.034.007.064.022.098.03a5.997 5.997 0 1 0 0-11.755c-.034.006-.064.022-.098.028a5.995 5.995 0 0 1 4.7 5.85"/>
        <path fill="#E3E9FD" d="M31 28.436s-.474.023-1.201.162c-.03.006-.067.015-.098.02 2.448.48 7.51 2.21 7.51 8.296v9.419a2.233 2.233 0 0 1-2.226 2.227h2.597a2.233 2.233 0 0 0 2.227-2.227v-9.419c0-8.024-8.809-8.479-8.809-8.479"/>
        <path fill="#FFF" d="M25.002 22.438c0 2.864 2.013 5.254 4.698 5.848a5.994 5.994 0 0 0 4.7-5.848 5.994 5.994 0 0 0-4.7-5.849 5.996 5.996 0 0 0-4.698 5.85M37.21 46.333v-9.42c0-6.086-5.061-7.814-7.51-8.295-2.446.482-7.51 2.21-7.51 8.295v9.42a2.233 2.233 0 0 0 2.228 2.227h10.567a2.233 2.233 0 0 0 2.226-2.227"/>
        <path stroke="#DAE1FD" stroke-linecap="round" stroke-linejoin="round" stroke-width=".75" d="M36.998 22.438a5.998 5.998 0 0 0-7.199-5.878c-.034.008-.065.022-.099.03a5.996 5.996 0 0 0-4.698 5.848c0 2.864 2.013 5.254 4.698 5.848.034.007.065.022.099.03a5.997 5.997 0 0 0 7.199-5.877z"/>
        <path stroke="#DAE1FD" stroke-linecap="round" stroke-linejoin="round" stroke-width=".75" d="M31 28.436s-.474.023-1.201.162c-.03.006-.067.015-.098.02-2.447.482-7.51 2.21-7.51 8.296v9.419a2.233 2.233 0 0 0 2.227 2.227h13.164a2.233 2.233 0 0 0 2.227-2.227v-9.419c0-8.024-8.809-8.479-8.809-8.479z"/>
        <path fill="#E3E9FD" d="M27.88 34.298a1.989 1.989 0 0 1 2.814 0l.306.306.306-.306a1.99 1.99 0 0 1 3 2.599 10.83 10.83 0 0 1-2.146 2.156c-.36.27-.75.5-1.16.688-.41-.188-.8-.417-1.16-.688a10.798 10.798 0 0 1-2.146-2.156 1.99 1.99 0 0 1 .187-2.6"/>
        <path fill="#DAE1FD" d="M30.936 39.053a10.825 10.825 0 0 0 2.145-2.156 1.991 1.991 0 0 0-.98-3.085 1.991 1.991 0 0 1 2.205 3.085 10.825 10.825 0 0 1-2.146 2.156c-.36.27-.75.5-1.16.688a6.358 6.358 0 0 1-.613-.321c.19-.112.372-.235.548-.367"/>
    </g>
</svg>
