<svg xmlns="http://www.w3.org/2000/svg" xmlns:xlink="http://www.w3.org/1999/xlink" width="24" height="24" viewBox="0 0 24 24">
    <defs>
        <path id="a" d="M5.048 0H6.32l5.05 12.75h-1.184L8.72 8.947H2.647L1.183 12.75H0L5.048 0zM3.001 8.018h5.367l-2.649-6.84h-.052L3 8.019zm13.345-4.75c1.27 0 2.225.34 2.841 1.053.53.59.813 1.411.813 2.483v5.946h-1.006v-1.768a4.685 4.685 0 0 1-1.466 1.357 4.71 4.71 0 0 1-2.4.661c-.883 0-1.606-.232-2.136-.679-.583-.463-.865-1.089-.865-1.84 0-1.07.424-1.856 1.289-2.356.742-.482 1.818-.732 3.195-.732l2.33-.036v-.553c0-1.75-.883-2.625-2.648-2.625-.741 0-1.341.143-1.818.463-.53.34-.865.822-1.007 1.465l-1.041-.071c.176-.93.636-1.644 1.377-2.108.653-.446 1.5-.66 2.542-.66zm2.595 4.929l-2.278.035c-2.311.018-3.459.768-3.459 2.232 0 .5.194.894.583 1.197.388.304.917.464 1.553.464.918 0 1.765-.321 2.507-.964.723-.607 1.094-1.286 1.094-2v-.964z"/>
    </defs>
    <g fill="none" fill-rule="evenodd" transform="translate(2 5)">
        <mask id="b" fill="#fff">
            <use xlink:href="#a"/>
        </mask>
        <use fill="#FFF" fill-opacity=".78" xlink:href="#a"/>
        <g fill="#000" fill-opacity=".78" mask="url(#b)">
            <path d="M-2-5h24v24H-2z"/>
        </g>
    </g>
</svg>
