<svg xmlns="http://www.w3.org/2000/svg" width="56" height="30" viewBox="0 0 56 30">
    <path fill="#0033E7" fill-rule="nonzero" d="M12.308 7.824l-2.065-3.003H8.16l1.825 2.655H2.35L4.148 4.82H2.052L0 7.824h.96v4.834h10.388V7.824h.96zM12 4.365v-1.05H7.077v-.85h4.394L12.025.85H10.12l-.19.563H.581v1.05H5.23v.851H.27v1.05h4.96v2.801h1.846v-2.8H12zm-2.462 5.17H2.785v-1.01h6.753v1.01zm0 2.073H2.785v-1.022h6.753v1.022zm-6.2 8.835l-1.406-2.924H0l1.406 2.924h1.932zm-.178 4.105H1.283L.028 29.33h1.877l1.255-4.782zm.203-.511l-1.283-3.15H.148l1.283 3.15h1.932zm8.972 1.347l-1.824-3.062h1.621v-1.086h-1.729v-1.53h1.43v-1.07h-1.43v-1.101H8.578v1.102h-1.96v-1.102H4.797v1.102H3.385v1.077h1.418v1.53h-1.71v1.078h1.812l-1.828 3.062h1.028v3.946h7.609l.526-1.078H5.932v-1.117h5.296v-1.751h1.107zm-2.932.673h-3.47v-1.454h3.47v1.454zm-.172-2.531H6.188l.729-1.225h1.581l.733 1.225zm-.65-2.29H6.619v-1.53h1.96l.004 1.53zm22.256 8.743a14.94 14.94 0 0 0 11.681-5.296 14.777 14.777 0 0 0 3.214-12.365l-14.895 17.66zm-4.75-.858l4.258-5.054c-5.751-.468-9.973-6.312-7.576-12.468a8.352 8.352 0 0 1 4.865-4.772c5.597-2.085 10.877 1.169 12.163 6.03l4.255-5.048C40.711 1.974 33.508-1.39 25.898 1.18a14.097 14.097 0 0 0-8.815 8.709c-2.975 8.571 1.702 16.647 8.997 19.233h.006zM55.691.517V26.37a2.957 2.957 0 0 1-1.458 2.643c-.935.55-2.096.55-3.03 0a2.957 2.957 0 0 1-1.46-2.643V7.57L55.693.517z"/>
</svg>
