<svg xmlns="http://www.w3.org/2000/svg" width="68" height="40" viewBox="0 0 68 40">
    <path fill="#FFF" fill-rule="nonzero" d="M14.945 10.773L12.438 7.07h-2.53l2.216 3.274h-9.27l2.182-3.274H2.492L0 10.773h1.166v5.962h12.613v-5.962h1.166zm-.374-4.266V5.212H8.593v-1.05h5.336l.672-1.99H12.29l-.232.695H.707v1.295h5.645v1.05H.329v1.295h6.023V9.96h2.241V6.507h5.978zm-2.989 6.377h-8.2v-1.246h8.2v1.246zm0 2.556h-8.2v-1.261h8.2v1.26zM4.054 26.336L2.346 22.73H0l1.707 3.606h2.347zm-.217 5.063H1.558L.034 37.296h2.279L3.837 31.4zm.247-.63l-1.558-3.886H.179l1.558 3.885h2.347zm10.895 1.66l-2.216-3.775h1.97v-1.34h-2.1v-1.888h1.737v-1.318h-1.738V22.75h-2.215v1.36h-2.38v-1.36H5.825v1.36H4.11v1.328h1.722v1.888H3.755v1.329h2.2l-2.219 3.775h1.248v4.867h9.24l.639-1.329h-7.66V34.59h6.43v-2.16h1.346zm-3.561.831H7.204v-1.793h4.214v1.793zm-.21-3.122H7.515l.885-1.51h1.92l.89 1.51zm-.788-2.824H8.037v-1.888h2.38l.003 1.888zm27.025 10.783a18.024 18.024 0 0 0 14.184-6.532 18.432 18.432 0 0 0 3.903-15.25L37.445 38.098zm-5.769-1.058l5.171-6.233c-6.983-.578-12.11-7.785-9.199-15.378a10.218 10.218 0 0 1 5.907-5.886c6.797-2.57 13.208 1.443 14.77 7.438l5.167-6.226C49.435 3.558 40.688-.59 31.448 2.577 26.43 4.295 22.48 8.26 20.744 13.317 17.13 23.89 22.81 33.85 31.669 37.04h.007zm35.95-35.278v31.884a3.66 3.66 0 0 1-1.77 3.26 3.58 3.58 0 0 1-3.68 0 3.66 3.66 0 0 1-1.772-3.26V10.46l7.222-8.699z"/>
</svg>
