<svg xmlns="http://www.w3.org/2000/svg" width="24" height="24"><rect id="backgroundrect" width="100%" height="100%" x="0" y="0" fill="none" stroke="none"/><g class="currentLayer" style=""><title>Layer 1</title><path d="M15 15h3.7v-3H15V9.5c0-.3.1-.6.3-.8a1 1 0 0 1 .8-.3h3v-3h-3.4a4 4 0 0 0-2.6 1.3A4.1 4.1 0 0 0 12 9.5V12H9l.1 3H12v8.1H3c-.5 0-1-.2-1.4-.5a1.9 1.9 0 0 1-.5-1.4V3c0-.5.2-1 .5-1.4A1.9 1.9 0 0 1 3 1h18.3a1.9 1.9 0 0 1 1.9 1.9v18.3c0 .5-.2 1-.5 1.4a1.9 1.9 0 0 1-1.4.5H15v-8z" id="svg_1" class="selected" fill="#ffffff" fill-opacity="1"/></g></svg>
