<svg xmlns="http://www.w3.org/2000/svg" width="20" height="16.25" style=""><rect id="backgroundrect" width="100%" height="100%" x="0" y="0" fill="none" stroke="none"/><g class="currentLayer" style=""><title>Layer 1</title><path d="M6.29 16.25A11.6 11.6 0 0 0 17.97 4.58v-.53a8.27 8.27 0 0 0 2-2.13 8 8 0 0 1-2.36.65A4.16 4.16 0 0 0 19.41.3a8.36 8.36 0 0 1-2.6 1 4.1 4.1 0 0 0-7.1 2.8 4.17 4.17 0 0 0 .1.94A11.63 11.63 0 0 1 1.4.75a4 4 0 0 0-.56 2.06 4.09 4.09 0 0 0 1.83 3.42 4 4 0 0 1-1.86-.48 4.11 4.11 0 0 0 3.29 4 4.32 4.32 0 0 1-1.08.14 3.87 3.87 0 0 1-.77-.07 4.09 4.09 0 0 0 3.83 2.93 8.27 8.27 0 0 1-5.1 1.76 7.93 7.93 0 0 1-1-.06 11.68 11.68 0 0 0 6.31 1.8" id="svg_1" class="selected" fill="#ffffff" fill-opacity="1"/></g></svg>
