<svg xmlns="http://www.w3.org/2000/svg" xmlns:xlink="http://www.w3.org/1999/xlink" width="24" height="24" viewBox="0 0 24 24">
    <defs>
        <path id="a" d="M15.5 8.333C15.5 5.165 14.29 3.5 12 3.5S8.5 5.165 8.5 8.333c0 2.977 1.747 5.5 3.5 5.5s3.5-2.523 3.5-5.5zm1 0c0 3.468-2.1 6.5-4.5 6.5s-4.5-3.032-4.5-6.5C7.5 4.67 9.077 2.5 12 2.5s4.5 2.169 4.5 5.833zM4 21.5a.5.5 0 0 1-.5-.5c0-5.453 2.805-7.167 8.5-7.167s8.5 1.714 8.5 7.167a.5.5 0 0 1-.5.5H4zm15.491-1c-.159-4.368-2.464-5.667-7.491-5.667-5.027 0-7.332 1.299-7.491 5.667H19.49z"/>
    </defs>
    <g fill="none" fill-rule="evenodd">
        <mask id="b" fill="#fff">
            <use xlink:href="#a"/>
        </mask>
        <use fill="#FFF" fill-rule="nonzero" xlink:href="#a"/>
        <g fill="#000" fill-opacity=".78" mask="url(#b)">
            <path d="M0 0h24v24H0z"/>
        </g>
    </g>
</svg>
