<svg xmlns="http://www.w3.org/2000/svg" width="24" height="24" viewBox="0 0 24 24">
    <path fill="#000" fill-opacity=".4" fill-rule="nonzero" d="M2.639 10.097c-.118.104-.139.165-.139.25v8.712a.29.29 0 0 0 .07.203l2.942.046c.117-.104.138-.165.138-.249v-8.712a.287.287 0 0 0-.07-.203l-.068-.047H2.639zm2.873 10.211H2.639c-.32 0-.607-.137-.829-.398a1.289 1.289 0 0 1-.31-.85v-8.713c0-.325.104-.61.309-.852a1.07 1.07 0 0 1 .83-.398h2.873c.32 0 .607.138.829.398.205.241.309.527.309.852v8.712c0 .32-.107.614-.309.851a1.068 1.068 0 0 1-.829.398zM17.484 21h-4.807c-1.161 0-1.862-.242-2.28-.387l-.128-.043c-.394-.131-.78-.361-1.118-.565l-.14-.083c-.846-.502-.89-.553-.944-.618a.5.5 0 0 1 .71-.7c.1.072.438.276.745.458l.143.085c.295.178.63.378.918.474l.14.047c.383.132.96.332 1.954.332h4.807c.714 0 1.27-.381 1.42-.97.142-.563-.316-.83-.41-.878a.502.502 0 0 1 .223-.947c.545 0 .94-.343 1.033-.894.117-.71-.346-.953-.351-.956a.5.5 0 0 1 .226-.946c.54 0 1.027-.384 1.109-.874a.91.91 0 0 0-.433-.978.506.506 0 0 1-.25-.565.498.498 0 0 1 .48-.38c.476 0 .863-.402.863-.896 0-.495-.387-.898-.862-.898h-4.085a.499.499 0 0 1-.45-.72c1.099-2.253.88-4.94.865-5.104a.555.555 0 0 1-.007-.082c-.001-.565-.504-.84-.934-.902a1.845 1.845 0 0 0-.633.047c-.325.116-.553.475-.553.874v.472c-.008 1.756-.501 2.38-1.32 3.414-.604.764-2.268 1.71-3.605 2.473-.578.329-1.077.613-1.353.805a.5.5 0 0 1-.57-.822c.313-.216.829-.511 1.428-.852 1.195-.681 2.832-1.613 3.316-2.225.799-1.01 1.098-1.386 1.104-2.796v-.47c0-.826.49-1.556 1.218-1.815.206-.073.7-.154 1.113-.094 1.05.154 1.787.93 1.789 1.889h-.013c.105.752.119 2.899-.637 4.908h3.327c1.027 0 1.862.85 1.862 1.898 0 .696-.37 1.306-.92 1.637.207.339.34.79.247 1.346-.111.66-.56 1.212-1.16 1.498.163.31.265.73.175 1.277-.112.675-.496 1.206-1.038 1.494.2.335.31.774.176 1.307-.262 1.032-1.222 1.725-2.39 1.725z"/>
</svg>
