<svg xmlns="http://www.w3.org/2000/svg" width="24" height="24" viewBox="0 0 24 24">
    <g fill="#FFF" fill-rule="nonzero" stroke="#FFF" stroke-width=".1">
        <path d="M23.77 7.04c0-.027.077.731.12 1.27.072.895.116 1.776.12 2.601v1.952c0 .874-.045 1.81-.12 2.745a40.146 40.146 0 0 1-.12 1.242c0 .555-.435 2.058-1.053 2.69-.725.806-1.483 1.082-2.477 1.15h-.115c-.769.084-1.669.152-2.672.206a122.053 122.053 0 0 1-5.493.147c-.27 0-2-.028-3.361-.059-2.124-.048-3.753-.107-4.574-.178a.68.68 0 0 0-.15-.032 1.62 1.62 0 0 0-.161-.005c-.767-.094-1.184-.194-1.693-.484a3.258 3.258 0 0 1-.818-.665C.615 18.985.19 17.497.19 16.967c0 .027-.077-.732-.12-1.271a34.951 34.951 0 0 1-.12-2.6V11.144c0-.874.045-1.81.12-2.745a40.146 40.146 0 0 1 .12-1.242c0-.555.435-2.058 1.053-2.691.725-.806 1.483-1.08 2.477-1.15h.115c1.403-.137 3.22-.232 5.249-.293 1.225-.037 2.534-.059 2.876-.059.312 0 1.663.02 2.896.049 2.024.049 3.847.122 5.264.225h.164c.958.072 1.719.348 2.473 1.15.588.634 1.013 2.122 1.013 2.652zm-.66 5.901v-1.837c0-1.51-.169-3.756-.24-3.899-.188-1.013-.418-1.782-.788-2.204-.537-.618-1.071-.81-1.882-.882h-.164c-1.4-.102-3.208-.176-5.222-.224a187.87 187.87 0 0 0-2.854-.05c-.29 0-1.636.02-2.854.05-2.014.048-3.822.122-5.226.224h-.116c-.82.067-1.351.258-1.926.882-.388.442-.726 1.53-.788 2.201-.008.06-.02.175-.038.335-.028.267-.056.564-.082.885-.075.914-.12 1.829-.12 2.682v1.952c.004.805.048 1.665.12 2.539.043.523.12 1.275.12 1.25.063.675.4 1.75.787 2.16.522.573 1.128.785 1.963.843.054 0 .095.005.188.02.087.015.126.02.178.02.768.085 2.39.155 4.54.21 1.304.033 3.04.063 3.254.063.094 0 .255 0 .48-.002a179.585 179.585 0 0 0 4.94-.095 73.486 73.486 0 0 0 2.66-.138h.116c.815-.072 1.349-.264 1.888-.883.4-.421.638-1.187.826-2.2.008-.06.02-.174.038-.334.028-.267.056-.564.082-.885.075-.914.12-1.83.12-2.683z"/>
        <path d="M16.985 11.999l.002.002a.457.457 0 0 1-.003.789l-7.602 4.144a.398.398 0 0 1-.222.044c-.058 0-.079 0-.108-.006a.404.404 0 0 1-.12-.041.457.457 0 0 1-.222-.394V8.056c0-.166.081-.301.223-.394a.42.42 0 0 1 .452-.001l7.6 4.338zm-7.375 3.79l6.325-3.351L9.61 8.72v7.07z"/>
    </g>
</svg>
