<svg xmlns="http://www.w3.org/2000/svg" width="24" height="24" viewBox="0 0 24 24">
    <path fill="#3C434E" fill-rule="nonzero" d="M16.55 17.245a.547.547 0 0 1 .004-.77.537.537 0 0 1 .763.006l4.277 4.593a.547.547 0 0 1-.004.77.537.537 0 0 1-.764-.006l-4.277-4.593zm-5.47 1.469c4.28 0 7.75-3.498 7.75-7.813 0-4.315-3.47-7.813-7.75-7.813-4.28 0-7.75 3.498-7.75 7.813 0 4.315 3.47 7.813 7.75 7.813zm0 1.087c-4.877 0-8.83-3.985-8.83-8.9C2.25 5.985 6.203 2 11.08 2c4.876 0 8.83 3.985 8.83 8.9 0 4.916-3.954 8.901-8.83 8.901z"/>
</svg>
