<svg xmlns="http://www.w3.org/2000/svg" width="24" height="24" viewBox="0 0 24 24">
    <path fill="#FFF" fill-rule="nonzero" d="M24 4.37a9.773 9.773 0 0 1-2.828.797 5.04 5.04 0 0 0 2.167-2.792c-.951.578-2.004 1-3.128 1.224A4.873 4.873 0 0 0 16.615 2c-2.72 0-4.923 2.26-4.923 5.047 0 .396.041.781.127 1.15C7.725 7.99 4.09 5.98 1.663 2.923a5.141 5.141 0 0 0-.666 2.536c0 1.75.87 3.297 2.192 4.203a4.717 4.717 0 0 1-2.228-.63v.063c0 2.448 1.699 4.484 3.952 4.948-.412.114-.85.177-1.297.177a4.54 4.54 0 0 1-.926-.094c.626 2.005 2.447 3.464 4.603 3.505A9.726 9.726 0 0 1 0 19.72 13.53 13.53 0 0 0 7.537 22C16.6 22 21.56 14.307 21.56 7.635c0-.218-.005-.437-.015-.65A10.25 10.25 0 0 0 24 4.37zm-2.94 1.937l-.356.266.02.448c.01.198.016.406.016.614 0 1.573-.3 3.22-.865 4.766a14.08 14.08 0 0 1-2.543 4.365 12.447 12.447 0 0 1-4.124 3.166c-1.72.818-3.626 1.23-5.67 1.23-1.47 0-2.92-.25-4.298-.74a10.545 10.545 0 0 0 4.537-2.13l1.795-1.443-2.284-.042a4.078 4.078 0 0 1-3.27-1.765 5.533 5.533 0 0 0 1.093-.193l3.087-1.052-3.138-.568c-1.505-.307-2.685-1.453-3.117-2.906.396.104.783.146 1.215.172 0 0 1.618.073 2.838-.005-.661-.323-2.36-1.521-2.36-1.521a4.245 4.245 0 0 1-1.83-3.51c0-.334.04-.667.111-.99a14.734 14.734 0 0 0 3.82 2.89 14.399 14.399 0 0 0 6.032 1.662l1.078.057L12.603 8a4.267 4.267 0 0 1-.107-.964c0-2.312 1.846-4.203 4.114-4.203 1.134 0 2.228.485 3 1.334l.311.338.443-.088c.228-.047.452-.1.676-.162-.05.073-.29.318-.56.563-.228.208-.905.86-.905.86s.661.213 1.073.26c.412.046.885-.032.962-.042-.143.12-.397.302-.55.411z"/>
</svg>
