<svg xmlns="http://www.w3.org/2000/svg" width="24" height="24"><rect id="backgroundrect" width="100%" height="100%" x="0" y="0" fill="none" stroke="none"/><g class="currentLayer" style=""><title>Layer 1</title><path stroke-width=".1" d="M16.73.95c3.474 0 6.32 2.846 6.32 6.32v9.46c0 3.474-2.846 6.32-6.32 6.32H7.27c-3.474 0-6.32-2.846-6.32-6.32V7.27C.95 3.796 3.796.95 7.27.95h9.46zM12 6.183c-3.199 0-5.817 2.618-5.817 5.817 0 3.199 2.618 5.817 5.817 5.817 3.199 0 5.817-2.618 5.817-5.817 0-3.199-2.618-5.817-5.817-5.817zm5.867-1.1a1.03 1.03 0 0 0-1.05 1.05c0 .596.454 1.05 1.05 1.05a1.03 1.03 0 0 0 1.05-1.05 1.03 1.03 0 0 0-1.05-1.05zM12 17.183c-2.851 0-5.183-2.332-5.183-5.183S9.149 6.817 12 6.817 17.183 9.149 17.183 12 14.851 17.183 12 17.183z" id="svg_1" class="selected" fill="#ffffff" fill-opacity="1"/></g></svg>
