<svg xmlns="http://www.w3.org/2000/svg" xmlns:xlink="http://www.w3.org/1999/xlink" width="24" height="24" viewBox="0 0 24 24">
    <defs>
        <path id="a" d="M12.18 2c-5.42 0-9.817 4.362-9.817 9.742 0 1.842.516 3.563 1.41 5.032L2 22l5.436-1.726a9.839 9.839 0 0 0 4.745 1.211c5.423 0 9.819-4.362 9.819-9.743C22 6.362 17.604 2 12.18 2zm0 17.853a8.166 8.166 0 0 1-4.495-1.341l-3.14.998 1.02-3.012a8.023 8.023 0 0 1-1.556-4.756c0-4.472 3.666-8.11 8.172-8.11 4.507 0 8.174 3.638 8.174 8.11 0 4.472-3.667 8.111-8.174 8.111zm4.605-5.897c-.246-.133-1.455-.781-1.682-.872-.226-.092-.392-.14-.569.103-.176.242-.678.785-.83.945-.152.161-.3.177-.546.043-.245-.134-1.043-.427-1.968-1.31-.72-.687-1.193-1.52-1.329-1.774-.138-.254-.001-.384.129-.503.117-.108.262-.282.393-.422.13-.14.176-.242.265-.405.09-.163.054-.31-.004-.437-.058-.126-.513-1.369-.703-1.874-.19-.505-.402-.43-.548-.436-.146-.005-.312-.032-.48-.039a.924.924 0 0 0-.68.287c-.239.24-.91.817-.955 2.042-.047 1.223.807 2.438.926 2.609.119.17 1.63 2.823 4.138 3.913 2.511 1.091 2.525.759 2.984.734.462-.024 1.506-.547 1.737-1.119.231-.573.25-1.07.191-1.176-.059-.106-.223-.175-.47-.309z"/>
    </defs>
    <g fill="none" fill-rule="evenodd">
        <mask id="b" fill="#fff">
            <use xlink:href="#a"/>
        </mask>
        <g fill="#000" fill-opacity=".78" mask="url(#b)">
            <path d="M0 0h24v24H0z"/>
        </g>
    </g>
</svg>
