<svg xmlns="http://www.w3.org/2000/svg" width="26" height="26" viewBox="0 0 26 26">
    <g fill="#FFF" fill-rule="nonzero">
        <path stroke="#FFF" stroke-width=".1" d="M18.16.95c3.788 0 6.89 3.102 6.89 6.89v10.32c0 3.788-3.102 6.89-6.89 6.89H7.84c-3.788 0-6.89-3.102-6.89-6.89V7.84C.95 4.052 4.052.95 7.84.95h10.32zm5.99 17.21V7.84c0-3.292-2.698-5.99-5.99-5.99H7.84c-3.292 0-5.99 2.698-5.99 5.99v10.32c0 3.292 2.698 5.99 5.99 5.99h10.32c3.292 0 5.99-2.698 5.99-5.99z"/>
        <path stroke="#FFF" stroke-width=".1" d="M13 6.55c3.548 0 6.45 2.902 6.45 6.45s-2.902 6.45-6.45 6.45S6.55 16.548 6.55 13 9.452 6.55 13 6.55zm0 12c3.052 0 5.55-2.498 5.55-5.55 0-3.052-2.498-5.55-5.55-5.55-3.052 0-5.55 2.498-5.55 5.55 0 3.052 2.498 5.55 5.55 5.55z"/>
        <path d="M19.4 5.4c-.68 0-1.2.52-1.2 1.2 0 .68.52 1.2 1.2 1.2.68 0 1.2-.52 1.2-1.2 0-.68-.52-1.2-1.2-1.2z"/>
    </g>
</svg>
