<svg xmlns="http://www.w3.org/2000/svg" width="26" height="26" viewBox="0 0 26 26">
    <path fill="#FFF" fill-rule="nonzero" stroke="#FFF" stroke-width=".1" d="M23 .95A2.03 2.03 0 0 1 25.05 3v20A2.03 2.03 0 0 1 23 25.05H3A2.03 2.03 0 0 1 .95 23V3A2.03 2.03 0 0 1 3 .95h20zm-9.95 23.2l3.1.05.05-8.05 3.95.05.05-3.15-4.05-.05v-2.8c0-.708.542-1.25 1.25-1.25l3.15.05.05-3.15h-3.596c-2.22.198-3.954 2.101-3.954 4.35L13 13.05 9.85 13l-.05 3.15 3.25.05v7.95zM24.15 23V3c0-.652-.498-1.15-1.15-1.15H3c-.652 0-1.15.498-1.15 1.15v20c0 .652.498 1.15 1.15 1.15l9.15.05.05-7.15L8.95 17 9 12.15l3.15.05v-2c0-2.709 2.102-5.008 4.81-5.25l4.49.05-.05 4.85h-4c-.212 0-.35.138-.35.35L17 12.15l4.05.05-.05 4.85-3.95-.05-.05 7.15h6c.652 0 1.15-.498 1.15-1.15z"/>
</svg>
