<svg xmlns="http://www.w3.org/2000/svg" width="24" height="24" style=""><rect id="backgroundrect" width="100%" height="100%" x="0" y="0" fill="none" stroke="none"/><g class="currentLayer" style=""><title>Layer 1</title><path stroke-width=".1" d="M23.77 7.04c0-.027.077.731.12 1.27.072.895.116 1.776.12 2.601v1.952c0 .874-.045 1.81-.12 2.745a40.146 40.146 0 0 1-.12 1.242c0 .555-.435 2.058-1.053 2.69-.725.806-1.483 1.082-2.477 1.15h-.115c-.769.084-1.669.152-2.672.206a122.053 122.053 0 0 1-5.493.147c-.27 0-2-.028-3.361-.059-2.124-.048-3.753-.107-4.574-.178a.68.68 0 0 0-.15-.032 1.62 1.62 0 0 0-.161-.005c-.767-.094-1.184-.194-1.693-.484a3.258 3.258 0 0 1-.818-.665C.615 18.985.19 17.497.19 16.967c0 .027-.077-.732-.12-1.271a34.951 34.951 0 0 1-.12-2.6V11.144c0-.874.045-1.81.12-2.745a40.146 40.146 0 0 1 .12-1.242c0-.555.435-2.058 1.053-2.691.725-.806 1.483-1.08 2.477-1.15h.115c1.403-.137 3.22-.232 5.249-.293 1.225-.037 2.534-.059 2.876-.059.312 0 1.663.02 2.896.049 2.024.049 3.847.122 5.264.225h.164c.958.072 1.719.348 2.473 1.15.588.634 1.013 2.122 1.013 2.652zm-6.836 5.045L9.333 7.746a.32.32 0 0 0-.346 0 .358.358 0 0 0-.177.31v8.481c0 .13.063.235.172.307.035.017.06.025.086.03.022.003.04.004.092.004s.07 0 .092-.004a.297.297 0 0 0 .084-.029l7.597-4.14a.358.358 0 0 0 0-.62z" id="svg_1" class="selected" fill="#ffffff" fill-opacity="1"/></g></svg>
