<svg xmlns="http://www.w3.org/2000/svg" width="24" height="24" viewBox="0 0 24 24">
    <path fill="#fff" fill-opacity="1" fill-rule="nonzero" d="M14.128 14.865h.089a.499.499 0 0 1 .497.499v3.423l6.957-7.02-6.957-7.053v3.382a.5.5 0 0 1-.493.5c-.026 0-2.734.057-5.456 1.502-1.58.838-2.858 1.975-3.801 3.38-.988 1.47-1.613 3.248-1.864 5.296a16.927 16.927 0 0 1 2.225-1.538 17.454 17.454 0 0 1 8.803-2.371zm-11.63 5.632A.497.497 0 0 1 2 19.975c.132-2.775.855-5.153 2.151-7.074 1.04-1.543 2.448-2.79 4.182-3.702 2.248-1.185 4.433-1.493 5.383-1.574V3.498a.5.5 0 0 1 .854-.35l8.157 8.27a.5.5 0 0 1-.001.701l-8.157 8.23a.497.497 0 0 1-.853-.351v-4.131a16.438 16.438 0 0 0-7.89 2.23c-1.915 1.113-2.95 2.228-2.962 2.239a.496.496 0 0 1-.366.16z"/>
</svg>
