<svg xmlns="http://www.w3.org/2000/svg" xmlns:xlink="http://www.w3.org/1999/xlink" width="24" height="24" viewBox="0 0 24 24">
    <defs>
        <path id="a" d="M16.702 6.15l-2.854-2.853 2.149-2.148 2.852 2.853-2.147 2.148zm-14.58 9.343l2.383 2.383-3.335.953.953-3.336zm3.292 1.945L2.56 14.585 13.175 3.971l2.853 2.853L5.414 17.438zM19.86 3.666L16.333.14a.476.476 0 0 0-.673 0l-2.82 2.82a.014.014 0 0 0-.003.003L1.552 14.246a.51.51 0 0 0-.12.203l-.001.004-1.412 4.938a.477.477 0 0 0 .59.59l4.938-1.412c.003 0 .005-.003.008-.004a.515.515 0 0 0 .185-.108c.004-.004.009-.004.013-.008L17.038 7.162V7.16l2.822-2.82a.476.476 0 0 0 0-.674z"/>
    </defs>
    <g fill="none" fill-rule="evenodd" transform="translate(2 2)">
        <mask id="b" fill="#fff">
            <use xlink:href="#a"/>
        </mask>
        <use fill="#FFF" xlink:href="#a"/>
        <g fill="#FFF" mask="url(#b)">
            <path d="M-2-2h24v24H-2z"/>
        </g>
    </g>
</svg>
