<svg xmlns="http://www.w3.org/2000/svg" width="64" height="64" viewBox="0 0 64 64">
    <g fill="none" fill-rule="evenodd">
        <path fill="#F8F9FF" d="M57.667 32.543h-9.334A2.34 2.34 0 0 0 46 34.876a2.34 2.34 0 0 0 2.333 2.334h9.334A2.34 2.34 0 0 1 60 39.543a2.34 2.34 0 0 1-2.333 2.333H11a2.34 2.34 0 0 1-2.333-2.333A2.34 2.34 0 0 1 11 37.21h9.333a2.341 2.341 0 0 0 2.334-2.334 2.34 2.34 0 0 0-2.334-2.333H7.5a2.34 2.34 0 0 1-2.333-2.333A2.34 2.34 0 0 1 7.5 27.876h9.917c.962 0 1.75-.787 1.75-1.75 0-.962-.788-1.75-1.75-1.75H6.333A2.34 2.34 0 0 1 4 22.043a2.34 2.34 0 0 1 2.333-2.333h49a2.34 2.34 0 0 1 2.334 2.333 2.34 2.34 0 0 1-2.334 2.333H44.25c-.963 0-1.75.788-1.75 1.75 0 .963.787 1.75 1.75 1.75h13.417A2.34 2.34 0 0 1 60 30.21a2.34 2.34 0 0 1-2.333 2.333"/>
        <path fill="#E3E9FD" d="M9.707 11.75a.5.5 0 1 1-1 0 .5.5 0 0 1 1 0M54.25 41.876a.5.5 0 1 1-1 0 .5.5 0 0 1 1 0"/>
        <path stroke="#E3E9FD" stroke-width=".75" d="M10.207 47.278a1.5 1.5 0 1 1-3.001 0 1.5 1.5 0 0 1 3.001 0z"/>
        <path stroke="#E3E9FD" stroke-linecap="round" stroke-width=".75" d="M51.75 18.215h3M53.25 19.715v-3"/>
        <path fill="#E3E9FD" d="M48.212 12.793a1 1 0 1 1-1.998.002 1 1 0 0 1 1.998-.002"/>
        <path stroke="#E3E9FD" stroke-linejoin="round" stroke-width=".5" d="M47.919 49.69v.5-1zM47.919 52.69v.5-1zM46.419 51.19h.5-1zM49.419 51.19h.5-1zM48.98 50.129l-.354.354.354-.354.354-.354zM46.858 52.25l-.354.354.354-.354.354-.354zM46.858 50.129l.354.354-.354-.354-.354-.354zM48.98 52.25l.354.354-.355-.354-.353-.354zM16.508 10.75v.5-1zM16.508 13.75v.5-1zM15.008 12.25h.5-1zM18.008 12.25h.5-1zM17.568 11.19l-.354.353.354-.354.354-.354zM15.447 13.31l-.354.354.354-.354.354-.354zM15.447 11.19l.354.353-.354-.354-.354-.354zM17.568 13.31l.354.354-.354-.354-.354-.354z"/>
        <path fill="#FFF" d="M47.953 16.574H14.047a.547.547 0 0 0-.547.547v27.344c0 .301.245.546.547.546h33.906a.547.547 0 0 0 .547-.546V17.121a.547.547 0 0 0-.547-.547"/>
        <path stroke="#DAE1FD" stroke-linecap="round" stroke-linejoin="round" stroke-width=".75" d="M47.953 16.574H14.047a.547.547 0 0 0-.547.547v27.344c0 .301.245.546.547.546h33.906a.547.547 0 0 0 .547-.546V17.121a.547.547 0 0 0-.547-.547z"/>
        <path fill="#EDF0FE" d="M47.953 16.574H14.047a.547.547 0 0 0-.547.547v6.015h35v-6.015a.547.547 0 0 0-.547-.547"/>
        <path stroke="#DAE1FD" stroke-linecap="round" stroke-linejoin="round" stroke-width=".75" d="M47.953 16.574H14.047a.547.547 0 0 0-.547.547v6.015h35v-6.015a.547.547 0 0 0-.547-.547z"/>
        <path fill="#EDF0FE" d="M15.14 44.465V17.12c0-.302.246-.547.548-.547h-1.641a.547.547 0 0 0-.547.547v27.344c0 .302.245.547.547.547h1.64a.547.547 0 0 1-.546-.547"/>
        <path fill="#DAE1FD" d="M45.219 18.215c-.904 0-1.641.736-1.641 1.64 0 .905.737 1.64 1.64 1.64.905 0 1.642-.735 1.642-1.64 0-.904-.737-1.64-1.641-1.64"/>
        <path fill="#FFF" d="M45.219 18.762a1.094 1.094 0 1 0 0 2.188 1.094 1.094 0 0 0 0-2.188"/>
        <path stroke="#DAE1FD" stroke-linecap="round" stroke-linejoin="round" stroke-width=".75" d="M45.219 18.762a1.094 1.094 0 1 0 0 2.188 1.094 1.094 0 0 0 0-2.188z"/>
        <path fill="#DAE1FD" d="M40.844 18.215c-.904 0-1.641.736-1.641 1.64 0 .905.737 1.64 1.64 1.64.905 0 1.642-.735 1.642-1.64 0-.904-.737-1.64-1.641-1.64"/>
        <path fill="#FFF" d="M40.844 18.762a1.094 1.094 0 1 0 0 2.188 1.094 1.094 0 0 0 0-2.188"/>
        <path stroke="#DAE1FD" stroke-linecap="round" stroke-linejoin="round" stroke-width=".75" d="M40.844 18.762a1.094 1.094 0 1 0 0 2.188 1.094 1.094 0 0 0 0-2.188z"/>
        <path fill="#DAE1FD" d="M36.469 18.215c-.904 0-1.641.736-1.641 1.64 0 .905.737 1.64 1.64 1.64.905 0 1.642-.735 1.642-1.64 0-.904-.737-1.64-1.641-1.64"/>
        <path fill="#FFF" d="M36.469 18.762a1.094 1.094 0 1 0 0 2.188 1.094 1.094 0 0 0 0-2.188"/>
        <path stroke="#DAE1FD" stroke-linecap="round" stroke-linejoin="round" stroke-width=".75" d="M36.469 18.762a1.094 1.094 0 1 0 0 2.188 1.094 1.094 0 0 0 0-2.188z"/>
        <path fill="#DAE1FD" d="M16.781 20.402h-.547a.547.547 0 0 1 0-1.094h.547a.547.547 0 0 1 0 1.094M19.516 20.402h-1.094a.547.547 0 0 1 0-1.094h1.094a.547.547 0 0 1 0 1.094M21.703 20.402h-.547a.547.547 0 0 1 0-1.094h.547a.547.547 0 0 1 0 1.094M24.624 35.355H22.56l2.063-2.75v2.75zm2.063 0h-.688v-4.812a.696.696 0 0 0-.447-.645.694.694 0 0 0-.79.231l-4.126 5.501a.696.696 0 0 0-.05.75c.122.214.354.35.6.35h3.438v.688a.688.688 0 0 0 1.375 0v-.688h.688a.688.688 0 0 0 0-1.375zM38.802 31.094h-.179c-.629 0-1.258.002-1.887-.002-.328-.001-.595-.24-.658-.577a.708.708 0 0 1 .413-.762.813.813 0 0 1 .296-.048c1.098-.004 2.196.001 3.294-.005.288-.002.504.112.635.37.138.27.13.56-.04.807-.203.294-.439.564-.663.842-.309.382-.62.76-.931 1.141-.144.176-.132.201.08.25.752.17 1.375.54 1.733 1.273.52 1.062.312 2.817-1.263 3.463-1.162.476-2.246.282-3.2-.57-.258-.232-.458-.515-.52-.877-.046-.276.033-.514.254-.681.223-.169.481-.205.713-.052.188.124.348.3.502.472.228.252.478.462.814.52.578.101 1.09-.047 1.343-.537.336-.65.105-1.709-.94-1.757-.282-.012-.565-.008-.848-.004-.301.005-.528-.127-.653-.406-.125-.278-.101-.562.09-.8.499-.622 1.009-1.234 1.511-1.852.041-.05.06-.12.104-.208"/>
        <path fill="#EDF0FE" d="M32.875 35.585c0 .632-.514 1.146-1.146 1.146h-.458a1.147 1.147 0 0 1-1.146-1.146v-3.21c0-.631.514-1.144 1.146-1.144h.458c.632 0 1.146.513 1.146 1.145v3.209zm-1.146-5.73h-.458a2.523 2.523 0 0 0-2.521 2.52v3.21a2.524 2.524 0 0 0 2.521 2.52h.458a2.524 2.524 0 0 0 2.521-2.52v-3.21c0-1.39-1.131-2.52-2.521-2.52z"/>
        <path stroke="#DAE1FD" stroke-linecap="round" stroke-linejoin="round" stroke-width=".75" d="M47.953 16.574H14.047a.547.547 0 0 0-.547.547v27.344c0 .301.245.546.547.546h33.906a.547.547 0 0 0 .547-.546V17.121a.547.547 0 0 0-.547-.547z"/>
        <path stroke="#DAE1FD" stroke-linecap="round" stroke-linejoin="round" stroke-width=".75" d="M47.953 16.574H14.047a.547.547 0 0 0-.547.547v6.015h35v-6.015a.547.547 0 0 0-.547-.547z"/>
    </g>
</svg>
