<svg xmlns="http://www.w3.org/2000/svg" width="20" height="20" viewBox="0 0 20 20">
    <g fill="#F5F6FA" fill-rule="evenodd">
        <path fill-opacity=".75" d="M15.084 1.421c.393.227.527.73.3 1.123L13.706 5.45a.822.822 0 0 1-1.423-.822l1.678-2.907a.822.822 0 0 1 1.123-.3z"/>
        <path d="M10.14 0c.455 0 .822.368.822.822v3.356a.822.822 0 0 1-1.643 0V.822c0-.454.368-.822.822-.822z" opacity=".7"/>
        <path d="M18.743 5.043a.822.822 0 0 1-.3 1.122l-2.908 1.679a.822.822 0 0 1-.822-1.423l2.908-1.679a.822.822 0 0 1 1.122.301z" opacity=".2"/>
        <path d="M19.988 10.048a.822.822 0 0 1-.821.821H15.81a.822.822 0 1 1 0-1.643h3.357c.453 0 .821.368.821.822z" opacity=".25"/>
        <path d="M18.743 15.043a.822.822 0 0 1-1.122.3l-2.907-1.678a.822.822 0 0 1 .822-1.423l2.907 1.679c.392.227.527.73.3 1.122z" opacity=".3"/>
        <path d="M15.084 18.742a.822.822 0 0 1-1.123-.3l-1.678-2.908a.822.822 0 0 1 1.423-.822l1.678 2.908a.822.822 0 0 1-.3 1.122z" opacity=".35"/>
        <path d="M10.14 20a.822.822 0 0 1-.82-.822v-3.356a.822.822 0 0 1 1.643 0v3.356a.822.822 0 0 1-.822.822z" opacity=".4"/>
        <path d="M5.19 18.742a.822.822 0 0 1-.302-1.122l1.679-2.907a.822.822 0 0 1 1.423.822L6.312 18.44a.822.822 0 0 1-1.123.301z" opacity=".45"/>
        <path d="M1.606 15.043a.822.822 0 0 1 .3-1.122l2.908-1.679a.822.822 0 0 1 .822 1.423l-2.908 1.679a.822.822 0 0 1-1.122-.3z" opacity=".5"/>
        <path d="M.2 10.048c0-.454.367-.822.821-.822h3.357a.822.822 0 1 1 0 1.643H1.02a.822.822 0 0 1-.821-.821z" opacity=".55"/>
        <path d="M1.606 5.043a.822.822 0 0 1 1.122-.3L5.635 6.42a.822.822 0 1 1-.822 1.423L1.907 6.165a.822.822 0 0 1-.3-1.122z" opacity=".6"/>
        <path d="M5.19 1.421a.822.822 0 0 1 1.122.301L7.99 4.63a.822.822 0 0 1-1.423.822L4.888 2.544A.822.822 0 0 1 5.19 1.42z" opacity=".65"/>
    </g>
</svg>
