<svg xmlns="http://www.w3.org/2000/svg" xmlns:xlink="http://www.w3.org/1999/xlink" width="64" height="64" viewBox="0 0 64 64">
    <defs>
        <path id="a" d="M0 47.636h56V0H0z"/>
    </defs>
    <g fill="none" fill-rule="evenodd" transform="translate(4 8)">
        <path fill="#F8F9FF" d="M2.333 23.133h9.334A2.34 2.34 0 0 1 14 25.466a2.34 2.34 0 0 1-2.333 2.334H2.333A2.34 2.34 0 0 0 0 30.133a2.34 2.34 0 0 0 2.333 2.333H49a2.34 2.34 0 0 0 2.333-2.333A2.34 2.34 0 0 0 49 27.8h-9.333a2.341 2.341 0 0 1-2.334-2.334 2.34 2.34 0 0 1 2.334-2.333H52.5a2.34 2.34 0 0 0 2.333-2.333 2.34 2.34 0 0 0-2.333-2.334h-9.917c-.962 0-1.75-.787-1.75-1.75 0-.962.788-1.75 1.75-1.75h11.084A2.34 2.34 0 0 0 56 12.633a2.34 2.34 0 0 0-2.333-2.333h-49a2.34 2.34 0 0 0-2.334 2.333 2.34 2.34 0 0 0 2.334 2.333H15.75c.963 0 1.75.788 1.75 1.75 0 .963-.787 1.75-1.75 1.75H2.333A2.34 2.34 0 0 0 0 20.8a2.34 2.34 0 0 0 2.333 2.333"/>
        <path fill="#E3E9FD" d="M5.5 10.007a.5.5 0 1 1-1 0 .5.5 0 0 1 1 0"/>
        <path stroke="#E3E9FD" stroke-width=".75" d="M3.914 34.752a1.5 1.5 0 1 1-3 0 1.5 1.5 0 0 1 3 0z"/>
        <path stroke="#E3E9FD" stroke-linecap="round" stroke-width=".75" d="M49.5 32.445h3M51 33.945v-3M39.164 2.81h3M40.664 4.31v-3"/>
        <path fill="#E3E9FD" d="M14.268 42.387a1 1 0 1 1-2 0 1 1 0 0 1 2 0"/>
        <path stroke="#E3E9FD" stroke-linejoin="round" stroke-width=".5" d="M13.336.75v.5-1zM13.336 3.75v.5-1zM11.836 2.25h.5-1zM14.836 2.25h.5-1zM14.398 1.19l-.354.354.354-.355.354-.354-.354.355zM12.275 3.31l-.354.355.354-.354.354-.354zM12.275 1.19l.354.354-.354-.355-.354-.354zM14.398 3.31c.194.196.354.355.354.355l-.354-.354-.354-.354.354.354zM42.582 43.887v.5-1zM42.582 46.887v.5-1zM41.082 45.387h.5-1zM44.082 45.387h.5-1zM43.643 44.326l-.354.354.354-.354.354-.354zM41.522 46.447l-.355.354.355-.354.354-.354zM41.522 44.326l.354.354-.354-.354-.355-.354zM43.643 46.447l.354.354-.354-.354-.354-.354z"/>
        <path fill="#FFF" d="M13.336 34.527H9.853a.353.353 0 0 0-.353.353v2.351h3.836v-2.704zM44.148 34.527h-3.484v2.704h3.837v-2.35a.354.354 0 0 0-.353-.354"/>
        <path fill="#E3E9FD" d="M12 34.527H9.853a.353.353 0 0 0-.353.353v2.351h2.147v-2.35c0-.196.16-.354.353-.354"/>
        <mask id="b" fill="#fff">
            <use xlink:href="#a"/>
        </mask>
        <path fill="#E3E9FD" d="M21.809 32.706h10.384V29.93H21.809z" mask="url(#b)"/>
        <path fill="#FFF" d="M13.268 37.231v-4.253c0-.193.159-.35.353-.35H40.38c.194 0 .353.157.353.35v4.253H13.268z" mask="url(#b)"/>
        <path fill="#E3E9FD" d="M15.804 32.627H13.62a.353.353 0 0 0-.352.352v4.252h2.183v-4.252c0-.194.159-.352.353-.352" mask="url(#b)"/>
        <path fill="#FFF" d="M27 8.744a1.64 1.64 0 0 1-.513-.082v3.631h1.026v-3.63a1.64 1.64 0 0 1-.513.081" mask="url(#b)"/>
        <path fill="#FFF" d="M27 5.534a1.644 1.644 0 1 1 0 3.288 1.644 1.644 0 0 1 0-3.288M12.75 16.718h-2.546a.706.706 0 0 0-.704.704v7.383c0 .388.317.705.704.705h2.546v-8.792zM43.796 16.718H41.25v8.792h2.546a.707.707 0 0 0 .704-.705v-7.383a.706.706 0 0 0-.704-.704" mask="url(#b)"/>
        <path fill="#E3E9FD" d="M10.943 24.805v-7.383c0-.388.317-.704.704-.704h-1.443a.706.706 0 0 0-.704.704v7.383c0 .388.317.705.704.705h1.443a.707.707 0 0 1-.704-.705" mask="url(#b)"/>
        <path fill="#FFF" d="M13.738 12.196a1.06 1.06 0 0 0-1.057 1.056v15.722a1.06 1.06 0 0 0 1.057 1.057h26.523a1.06 1.06 0 0 0 1.057-1.057V13.252a1.06 1.06 0 0 0-1.057-1.056H13.738z" mask="url(#b)"/>
        <path fill="#FFF" d="M15.546 27.519a.354.354 0 0 1-.353-.352V15.06c0-.193.16-.352.353-.352h22.908c.194 0 .353.159.353.352v12.107a.353.353 0 0 1-.353.352H15.546z" mask="url(#b)"/>
        <path fill="#FFF" d="M23.183 14.708l.783 1.559a.38.38 0 0 0 .307.188h5.455a.38.38 0 0 0 .307-.188l.783-1.559h-7.635z" mask="url(#b)"/>
        <path fill="#E3E9FD" d="M32.546 35.483a.517.517 0 0 1-.362-.149.517.517 0 0 1-.151-.364.516.516 0 0 1 .513-.512.516.516 0 0 1 .513.512.516.516 0 0 1-.513.513M35.247 35.483a.517.517 0 0 1-.513-.513.513.513 0 1 1 .513.513M37.95 35.483a.517.517 0 0 1-.363-.149.517.517 0 0 1-.15-.364.516.516 0 0 1 .512-.512.51.51 0 0 1 .513.512.517.517 0 0 1-.15.364.517.517 0 0 1-.363.15M20.405 35.483h-4.354a.512.512 0 1 1 0-1.025h4.354a.513.513 0 1 1 0 1.025" mask="url(#b)"/>
        <path fill="#EDF0FE" d="M28.375 22.718c0 .632-.514 1.146-1.146 1.146h-.458a1.147 1.147 0 0 1-1.146-1.146v-3.21c0-.631.514-1.144 1.146-1.144h.458c.632 0 1.146.513 1.146 1.145v3.209zm-1.146-5.73h-.458a2.523 2.523 0 0 0-2.521 2.52v3.21a2.524 2.524 0 0 0 2.521 2.52h.458a2.524 2.524 0 0 0 2.521-2.52v-3.21c0-1.39-1.131-2.52-2.521-2.52z" mask="url(#b)"/>
        <path fill="#DAE1FD" d="M36.125 22.718c0 .632-.514 1.146-1.146 1.146h-.458a1.147 1.147 0 0 1-1.146-1.146v-3.21c0-.631.514-1.144 1.146-1.144h.458c.632 0 1.146.513 1.146 1.145v3.209zm-1.146-5.73h-.458A2.523 2.523 0 0 0 32 19.509v3.21a2.524 2.524 0 0 0 2.521 2.52h.458a2.524 2.524 0 0 0 2.521-2.52v-3.21c0-1.39-1.131-2.52-2.521-2.52zM21.244 18.3h-2.649l-.318 1.808c.528-.284 1.015-.424 1.461-.424.358 0 .69.066 1 .2a2.562 2.562 0 0 1 1.371 1.395c.134.323.2.67.2 1.042 0 .54-.12 1.03-.362 1.473a2.681 2.681 0 0 1-1.047 1.055c-.455.26-.979.39-1.575.39-.665 0-1.206-.123-1.62-.368-.416-.246-.709-.527-.882-.845-.173-.318-.259-.596-.259-.834a.6.6 0 0 1 .181-.413.595.595 0 0 1 .455-.195c.313 0 .545.18.697.54.15.332.35.589.603.774.253.183.535.276.848.276.286 0 .537-.074.752-.224.216-.148.382-.353.5-.613.117-.261.175-.556.175-.887 0-.357-.062-.662-.189-.915a1.31 1.31 0 0 0-.508-.566 1.375 1.375 0 0 0-.708-.187c-.319 0-.549.039-.687.118a6.185 6.185 0 0 0-.594.41c-.258.195-.47.292-.638.292a.69.69 0 0 1-.485-.198.598.598 0 0 1-.212-.45c0-.017.02-.144.061-.38l.47-2.67c.051-.32.147-.552.29-.698.141-.144.371-.217.69-.217h2.946c.58 0 .87.22.87.664a.58.58 0 0 1-.212.468c-.142.119-.35.179-.625.179" mask="url(#b)"/>
        <path stroke="#DAE1FD" stroke-linecap="round" stroke-linejoin="round" stroke-width=".75" d="M44.213 34.752h-3.484v2.705h3.836v-2.352a.354.354 0 0 0-.352-.353zM11.932 34.752H9.784a.353.353 0 0 0-.352.353v2.352h3.836v-2.705h-1.336zM21.809 32.852h10.384v-2.777H21.809z" mask="url(#b)"/>
        <path stroke="#DAE1FD" stroke-linecap="round" stroke-linejoin="round" stroke-width=".75" d="M40.38 32.852H13.62a.353.353 0 0 0-.352.353v4.252h27.465v-4.252a.354.354 0 0 0-.353-.353zM27 8.678a1.64 1.64 0 0 1-.513-.082v3.63h1.026v-3.63a1.64 1.64 0 0 1-.513.082z" mask="url(#b)"/>
        <path stroke="#DAE1FD" stroke-linecap="round" stroke-linejoin="round" stroke-width=".75" d="M27 5.309a1.645 1.645 0 1 1-.001 3.289A1.645 1.645 0 0 1 27 5.308zM43.864 16.748h-2.546v8.792h2.546a.706.706 0 0 0 .704-.704v-7.384a.706.706 0 0 0-.704-.704zM12.682 16.748H10.136a.706.706 0 0 0-.704.704v7.384c0 .387.316.704.704.704H12.682v-8.792z" mask="url(#b)"/>
        <path stroke="#DAE1FD" stroke-linecap="round" stroke-linejoin="round" stroke-width=".75" d="M40.262 12.227H13.739a1.06 1.06 0 0 0-1.057 1.057v15.72a1.06 1.06 0 0 0 1.057 1.058h26.523a1.06 1.06 0 0 0 1.057-1.057V13.284a1.06 1.06 0 0 0-1.057-1.057z" mask="url(#b)"/>
        <path stroke="#DAE1FD" stroke-linecap="round" stroke-linejoin="round" stroke-width=".75" d="M23.183 12.227l.783 1.559a.38.38 0 0 0 .307.188h5.455a.38.38 0 0 0 .307-.188l.783-1.56h-7.635z" mask="url(#b)"/>
    </g>
</svg>
